<svg width="164" height="44" viewBox="0 0 164 44" fill="none" xmlns="http://www.w3.org/2000/svg">
<g id="03">
<g id="Icon">
<path id="Vector" d="M35.3997 43.5479H8.58142C4.17427 43.5479 0.602539 39.9762 0.602539 35.569V8.7508C0.602539 4.34365 4.17427 0.771912 8.58142 0.771912H35.3997C39.8068 0.771912 43.3786 4.34365 43.3786 8.7508V35.569C43.3786 39.9762 39.8068 43.5479 35.3997 43.5479Z" fill="#292F36"/>
<path id="Vector_2" d="M29.6972 22.5535C30.46 23.51 30.8474 24.6238 30.8474 25.883C30.8474 27.7355 30.2299 29.1884 28.995 30.2175C27.76 31.2467 25.9923 31.7794 23.6918 31.7794H13.6426V10.1674H23.4497C25.6533 10.1674 27.3483 10.6517 28.547 11.6082C29.7456 12.5647 30.351 13.9329 30.351 15.7006C30.351 17.0082 29.9999 18.0858 29.3098 18.9575C28.6196 19.8293 27.7116 20.3862 26.5856 20.6526C27.9053 20.9674 28.9344 21.597 29.6972 22.5535ZM18.8609 19.0059H22.2874C24.1035 19.0059 25.0116 18.2311 25.0116 16.6813C25.0116 15.1315 24.0793 14.3566 22.2268 14.3566H18.8609V19.0059ZM25.4959 25.1566C25.4959 24.3817 25.2416 23.7763 24.7331 23.3405C24.2246 22.9046 23.4981 22.6866 22.5658 22.6866H18.873V27.5418H22.6022C24.5273 27.5297 25.4959 26.7427 25.4959 25.1566Z" fill="white"/>
</g>
<g id="Vector_3">
<path d="M68.1628 31.7798L63.4893 23.6193H62.3027V31.7798H57.0723V10.1678H65.9955C67.7027 10.1678 69.1556 10.4584 70.3301 11.0516C71.5166 11.6449 72.4004 12.4561 72.9937 13.4853C73.587 14.5144 73.8776 15.6888 73.8776 17.0207C73.8776 18.5947 73.4417 19.9265 72.5821 21.0283C71.7103 22.1301 70.4632 22.8807 68.8045 23.2924L73.9381 31.7919H68.1628V31.7798ZM62.3027 20.0476H65.5354C66.5767 20.0476 67.3395 19.8175 67.8238 19.3574C68.3081 18.8973 68.5623 18.2193 68.5623 17.3234C68.5623 16.4637 68.3081 15.7978 67.8117 15.3014C67.3153 14.8171 66.5525 14.5628 65.5354 14.5628H62.3027V20.0476Z" fill="#292F36"/>
<path d="M97.5357 27.8449H89.4358L88.0918 31.7919H82.595L90.5133 10.3373H96.5308L104.449 31.7919H98.8918L97.5357 27.8449ZM96.1918 23.8615L93.5039 15.9189L90.7797 23.8615H96.1918Z" fill="#292F36"/>
<path d="M133.301 31.7798H128.071L119.329 18.5099V31.7798H114.099V10.1678H119.329L128.071 23.5588V10.1678H133.301V31.7798Z" fill="#292F36"/>
<path d="M162.626 26.5736C161.718 28.2081 160.41 29.4915 158.715 30.4117C157.008 31.3318 155.01 31.7919 152.71 31.7919H144.549V10.1799H152.71C155.035 10.1799 157.044 10.6279 158.727 11.5239C160.422 12.4198 161.718 13.679 162.626 15.3135C163.534 16.9481 163.982 18.8126 163.982 20.9435C163.982 23.0503 163.522 24.9269 162.626 26.5736ZM156.996 25.4839C158.122 24.4063 158.691 22.8808 158.691 20.9314C158.691 18.97 158.122 17.4566 156.996 16.379C155.87 15.3014 154.284 14.7566 152.238 14.7566H149.768V27.1063H152.238C154.284 27.1063 155.87 26.5736 156.996 25.4839Z" fill="#292F36"/>
</g>
</g>
</svg>
